HIERARCHY
ROOT Hips
{
	OFFSET 0.000000 97.167313 0.000000
	CHANNELS 6 Xposition Yposition Zposition Xrotation Yrotation Zrotation
	JOINT Spine
	{
		OFFSET 0.000000 13.784798 0.064400
		CHANNELS 3 Xrotation Yrotation Zrotation
		JOINT Spine1
		{
			OFFSET 0.000000 12.037903 0.404700
			CHANNELS 3 Xrotation Yrotation Zrotation
			JOINT Spine2
			{
				OFFSET 0.000000 17.795601 0.420200
				CHANNELS 3 Xrotation Yrotation Zrotation
				JOINT Neck
				{
					OFFSET 0.000000 39.131302 11.954600
					CHANNELS 3 Xrotation Yrotation Zrotation
					JOINT Head
					{
						OFFSET 0.000000 14.456192 15.627699
						CHANNELS 3 Xrotation Yrotation Zrotation
						JOINT HeadTop_End
						{
							OFFSET 0.000000 15.703506 7.603401
							CHANNELS 3 Xrotation Yrotation Zrotation
							End Site
							{
								OFFSET 0.000000 17.447403 0.000000
							}
						}
					}
				}
				JOINT LeftShoulder
				{
					OFFSET 17.399500 24.608795 1.168800
					CHANNELS 3 Xrotation Yrotation Zrotation
					JOINT LeftArm
					{
						OFFSET 18.980635 5.765305 1.818600
						CHANNELS 3 Xrotation Yrotation Zrotation
						JOINT LeftForeArm
						{
							OFFSET 49.290169 0.000000 0.000000
							CHANNELS 3 Xrotation Yrotation Zrotation
							JOINT LeftHand
							{
								OFFSET 31.562012 0.000000 0.000000
								CHANNELS 3 Xrotation Yrotation Zrotation
								JOINT LeftHandThumb1
								{
									OFFSET 6.133995 -4.388519 7.076070
									CHANNELS 3 Xrotation Yrotation Zrotation
									JOINT LeftHandThumb2
									{
										OFFSET 6.037666 -3.485840 3.485847
										CHANNELS 3 Xrotation Yrotation Zrotation
										JOINT LeftHandThumb3
										{
											OFFSET 6.496506 -3.750763 3.750761
											CHANNELS 3 Xrotation Yrotation Zrotation
											JOINT LeftHandThumb4
											{
												OFFSET 5.616882 -3.242905 3.242910
												CHANNELS 3 Xrotation Yrotation Zrotation
												End Site
												{
													OFFSET -1.254608 7.132141 0.375429
												}
											}
										}
									}
								}
								JOINT LeftHandPinky1
								{
									OFFSET 18.920792 -0.453171 -11.426712
									CHANNELS 3 Xrotation Yrotation Zrotation
									JOINT LeftHandPinky2
									{
										OFFSET 4.919586 0.000000 0.000000
										CHANNELS 3 Xrotation Yrotation Zrotation
										JOINT LeftHandPinky3
										{
											OFFSET 5.233047 0.000000 0.000000
											CHANNELS 3 Xrotation Yrotation Zrotation
											JOINT LeftHandPinky4
											{
												OFFSET 5.571716 0.000000 0.000000
												CHANNELS 3 Xrotation Yrotation Zrotation
												End Site
												{
													OFFSET -3.459808 4.342407 -0.466164
												}
											}
										}
									}
								}
								JOINT LeftHandRing1
								{
									OFFSET 22.726120 -0.094986 -6.500475
									CHANNELS 3 Xrotation Yrotation Zrotation
									JOINT LeftHandRing2
									{
										OFFSET 6.408615 0.000000 0.000000
										CHANNELS 3 Xrotation Yrotation Zrotation
										JOINT LeftHandRing3
										{
											OFFSET 6.150223 0.000000 0.000000
											CHANNELS 3 Xrotation Yrotation Zrotation
											JOINT LeftHandRing4
											{
												OFFSET 6.145386 0.000000 0.000000
												CHANNELS 3 Xrotation Yrotation Zrotation
												End Site
												{
													OFFSET -3.671402 4.923981 -0.202372
												}
											}
										}
									}
								}
								JOINT LeftHandMiddle1
								{
									OFFSET 23.373947 0.000000 0.000001
									CHANNELS 3 Xrotation Yrotation Zrotation
									JOINT LeftHandMiddle2
									{
										OFFSET 6.996567 0.000000 0.000000
										CHANNELS 3 Xrotation Yrotation Zrotation
										JOINT LeftHandMiddle3
										{
											OFFSET 7.015945 0.000000 0.000000
											CHANNELS 3 Xrotation Yrotation Zrotation
											JOINT LeftHandMiddle4
											{
												OFFSET 7.721573 0.000000 0.000000
												CHANNELS 3 Xrotation Yrotation Zrotation
												End Site
												{
													OFFSET -4.651108 6.158463 0.251582
												}
											}
										}
									}
								}
								JOINT LeftHandIndex1
								{
									OFFSET 21.310577 -0.490082 6.209344
									CHANNELS 3 Xrotation Yrotation Zrotation
									JOINT LeftHandIndex2
									{
										OFFSET 7.536453 0.000000 0.000000
										CHANNELS 3 Xrotation Yrotation Zrotation
										JOINT LeftHandIndex3
										{
											OFFSET 7.512344 0.000000 0.000000
											CHANNELS 3 Xrotation Yrotation Zrotation
											JOINT LeftHandIndex4
											{
												OFFSET 10.212402 0.000000 0.000001
												CHANNELS 3 Xrotation Yrotation Zrotation
												End Site
												{
													OFFSET -5.180801 8.690506 1.388433
												}
											}
										}
									}
								}
							}
						}
					}
				}
				JOINT RightShoulder
				{
					OFFSET -17.399500 24.608795 1.168800
					CHANNELS 3 Xrotation Yrotation Zrotation
					JOINT RightArm
					{
						OFFSET -18.980635 5.765305 1.818600
						CHANNELS 3 Xrotation Yrotation Zrotation
						JOINT RightForeArm
						{
							OFFSET -49.290169 0.000000 0.000000
							CHANNELS 3 Xrotation Yrotation Zrotation
							JOINT RightHand
							{
								OFFSET -31.562012 0.000000 0.000000
								CHANNELS 3 Xrotation Yrotation Zrotation
								JOINT RightHandThumb1
								{
									OFFSET -6.133995 -4.388519 7.076070
									CHANNELS 3 Xrotation Yrotation Zrotation
									JOINT RightHandThumb2
									{
										OFFSET -6.037666 -3.485840 3.485847
										CHANNELS 3 Xrotation Yrotation Zrotation
										JOINT RightHandThumb3
										{
											OFFSET -6.496506 -3.750763 3.750761
											CHANNELS 3 Xrotation Yrotation Zrotation
											JOINT RightHandThumb4
											{
												OFFSET -5.616882 -3.242905 3.242910
												CHANNELS 3 Xrotation Yrotation Zrotation
												End Site
												{
													OFFSET 1.254608 7.132141 0.375429
												}
											}
										}
									}
								}
								JOINT RightHandIndex1
								{
									OFFSET -21.310577 -0.490082 6.209344
									CHANNELS 3 Xrotation Yrotation Zrotation
									JOINT RightHandIndex2
									{
										OFFSET -7.536453 0.000000 0.000000
										CHANNELS 3 Xrotation Yrotation Zrotation
										JOINT RightHandIndex3
										{
											OFFSET -7.512344 0.000000 0.000000
											CHANNELS 3 Xrotation Yrotation Zrotation
											JOINT RightHandIndex4
											{
												OFFSET -10.212402 0.000000 0.000001
												CHANNELS 3 Xrotation Yrotation Zrotation
												End Site
												{
													OFFSET 5.180801 8.690506 1.388433
												}
											}
										}
									}
								}
								JOINT RightHandMiddle1
								{
									OFFSET -23.373947 0.000000 0.000001
									CHANNELS 3 Xrotation Yrotation Zrotation
									JOINT RightHandMiddle2
									{
										OFFSET -6.996567 0.000000 0.000000
										CHANNELS 3 Xrotation Yrotation Zrotation
										JOINT RightHandMiddle3
										{
											OFFSET -7.015945 0.000000 0.000000
											CHANNELS 3 Xrotation Yrotation Zrotation
											JOINT RightHandMiddle4
											{
												OFFSET -7.721573 0.000000 0.000000
												CHANNELS 3 Xrotation Yrotation Zrotation
												End Site
												{
													OFFSET 4.651108 6.158463 0.251582
												}
											}
										}
									}
								}
								JOINT RightHandRing1
								{
									OFFSET -22.726120 -0.094986 -6.500475
									CHANNELS 3 Xrotation Yrotation Zrotation
									JOINT RightHandRing2
									{
										OFFSET -6.408615 0.000000 0.000000
										CHANNELS 3 Xrotation Yrotation Zrotation
										JOINT RightHandRing3
										{
											OFFSET -6.150223 0.000000 0.000000
											CHANNELS 3 Xrotation Yrotation Zrotation
											JOINT RightHandRing4
											{
												OFFSET -6.145386 0.000000 0.000000
												CHANNELS 3 Xrotation Yrotation Zrotation
												End Site
												{
													OFFSET 3.671402 4.923981 -0.202372
												}
											}
										}
									}
								}
								JOINT RightHandPinky1
								{
									OFFSET -18.920792 -0.453171 -11.426712
									CHANNELS 3 Xrotation Yrotation Zrotation
									JOINT RightHandPinky2
									{
										OFFSET -4.919586 0.000000 0.000000
										CHANNELS 3 Xrotation Yrotation Zrotation
										JOINT RightHandPinky3
										{
											OFFSET -5.233047 0.000000 0.000000
											CHANNELS 3 Xrotation Yrotation Zrotation
											JOINT RightHandPinky4
											{
												OFFSET -5.571716 0.000000 0.000000
												CHANNELS 3 Xrotation Yrotation Zrotation
												End Site
												{
													OFFSET 3.459808 4.342407 -0.466164
												}
											}
										}
									}
								}
							}
						}
					}
				}
			}
		}
	}
	JOINT LeftUpLeg
	{
		OFFSET 19.899099 -7.885101 -3.429500
		CHANNELS 3 Xrotation Yrotation Zrotation
		JOINT LeftLeg
		{
			OFFSET 1.745560 -36.997807 10.304700
			CHANNELS 3 Xrotation Yrotation Zrotation
			JOINT LeftFoot
			{
				OFFSET -1.745558 -29.803308 -13.615400
				CHANNELS 3 Xrotation Yrotation Zrotation
				JOINT LeftToeBase
				{
					OFFSET 1.181900 -18.539904 15.226099
					CHANNELS 3 Xrotation Yrotation Zrotation
					JOINT LeftToe_End
					{
						OFFSET -0.863701 1.402801 16.534700
						CHANNELS 3 Xrotation Yrotation Zrotation
						End Site
						{
							OFFSET 0.000000 16.616566 0.000000
						}
					}
				}
			}
		}
	}
	JOINT RightUpLeg
	{
		OFFSET -19.899099 -7.885101 -3.429500
		CHANNELS 3 Xrotation Yrotation Zrotation
		JOINT RightLeg
		{
			OFFSET -1.745560 -36.997807 10.304700
			CHANNELS 3 Xrotation Yrotation Zrotation
			JOINT RightFoot
			{
				OFFSET 1.745558 -29.803308 -13.615400
				CHANNELS 3 Xrotation Yrotation Zrotation
				JOINT RightToeBase
				{
					OFFSET -1.181900 -18.539904 15.226099
					CHANNELS 3 Xrotation Yrotation Zrotation
					JOINT RightToe_End
					{
						OFFSET 0.863701 1.402801 16.534700
						CHANNELS 3 Xrotation Yrotation Zrotation
						End Site
						{
							OFFSET 0.000000 16.616566 0.000000
						}
					}
				}
			}
		}
	}
}
MOTION
Frames: 6
Frame Time: 0.033333
0.911419 19.449677 39.071579 52.903100 2.468915 -6.843376 22.163136 -6.610381 8.840595 10.511180 -2.876136 2.186017 10.435160 -3.164477 2.084025 -4.530967 0.811854 3.685242 -23.610422 8.212910 -4.096944 0.000000 -0.000000 -0.000000 0.850579 -25.313514 -7.441197 -50.479760 -30.262850 -37.846666 0.000013 -34.646227 0.000020 33.461448 6.652491 79.239128 -20.900961 -1.359817 -7.506088 -1.114489 -1.409652 6.748033 -9.023335 -2.703476 -2.342156 0.000001 0.000002 -0.000001 -3.210080 20.434828 10.256268 0.100229 -2.841569 -10.613856 0.000341 -0.067961 0.563141 0.000001 0.000001 -0.000004 -0.158300 6.219499 1.825745 0.025676 0.595278 -4.939103 0.082526 -1.065026 8.861513 -0.000001 0.000001 0.000003 -0.524758 -6.346199 -4.943135 0.059690 0.906534 -7.534270 0.232335 -1.776984 14.896740 0.000001 -0.000000 -0.000003 0.013937 0.465706 -2.559257 0.077889 1.034889 -8.608629 0.232329 -1.776973 14.896728 -0.000003 0.000003 0.000001 3.419109 15.799561 -9.382284 -86.605002 41.151770 48.153281 0.000032 52.685275 -0.000017 38.951835 -22.274953 61.988666 -10.739695 -4.547664 -7.070212 16.538268 -22.905729 1.911032 -2.061436 -35.605585 -6.849577 0.000001 0.000000 0.000001 1.045951 -4.368142 17.520716 1.133937 -3.810731 33.131499 0.216092 -1.723373 14.293506 -0.000001 0.000000 -0.000001 2.069015 -5.302302 31.970036 1.033015 -3.651793 31.580841 0.248564 -1.846052 15.335798 -0.000001 -0.000001 -0.000006 1.996320 -4.924154 39.313514 1.384994 -4.169270 36.738191 0.265315 -1.906047 15.847386 0.000000 -0.000001 0.000002 0.985376 -3.682019 38.891340 0.948343 -3.510596 30.225298 0.539178 -2.689266 22.670132 -0.000000 -0.000000 0.000002 -9.284399 1.345071 0.560060 49.120149 24.820371 12.887566 30.248210 2.547424 9.978915 27.522623 13.332859 22.804731 -0.000000 -0.000001 -0.000000 -113.817002 -16.998099 22.268145 117.666947 -29.625440 -22.472919 54.519909 0.668137 1.410383 36.529651 -32.690808 -28.759700 0.000000 0.000003 -0.000000 
0.133902 19.534500 40.282455 53.875371 2.995068 -6.326508 21.702849 -5.091997 8.196925 10.623144 -2.253977 2.382535 10.565725 -2.522315 2.314453 -5.237679 0.369423 3.300670 -22.914675 5.895847 -3.623165 -0.000003 0.000001 -0.000000 0.773532 -23.601727 -7.991538 -54.895081 -31.269532 -45.092926 0.000003 -33.530539 0.000009 38.246884 4.868598 80.349416 -20.876256 -1.370146 -7.485005 -1.114460 -1.409684 6.748008 -9.023306 -2.703332 -2.342095 -0.000001 0.000002 0.000000 -3.218083 20.428037 10.280191 0.100069 -2.842397 -10.606786 0.000334 -0.067942 0.563079 0.000001 0.000003 -0.000007 -0.160807 6.216461 1.848932 0.025646 0.594979 -4.936538 0.082522 -1.065013 8.861481 -0.000000 0.000000 -0.000000 -0.522010 -6.347173 -4.919611 0.059736 0.906897 -7.537214 0.232331 -1.776973 14.896644 0.000001 -0.000000 0.000001 0.013809 0.464312 -2.535986 0.077896 1.034884 -8.608643 0.232323 -1.776975 14.896624 -0.000001 -0.000001 0.000003 4.140576 16.388612 -12.139656 -91.948130 38.642178 46.624924 0.000008 50.060249 0.000019 41.430572 -25.931558 49.848954 -10.818136 -4.493107 -6.977704 16.407106 -22.735741 1.810448 -2.111904 -35.306419 -6.807623 0.000000 -0.000001 0.000001 1.018069 -4.293529 17.427043 1.121495 -3.791637 32.943666 0.209714 -1.698137 14.079859 -0.000002 0.000000 -0.000003 2.042277 -5.273041 31.753495 1.022310 -3.634367 31.412416 0.241494 -1.820068 15.114529 -0.000001 0.000000 -0.000004 1.997186 -4.930797 39.013580 1.368069 -4.146565 36.504848 0.259328 -1.884862 15.666502 0.000001 0.000001 -0.000005 1.047561 -3.751716 38.545090 0.939348 -3.495108 30.077889 0.531210 -2.670144 22.499936 -0.000002 -0.000000 0.000002 -8.881284 2.057726 1.128498 45.136947 24.438769 13.288295 32.610503 2.043494 12.037998 26.794636 13.203330 22.920341 0.000000 0.000001 -0.000000 -108.753482 -16.130100 19.148201 115.943540 -33.305116 -23.562418 49.149225 0.729959 -3.283798 33.106043 -31.400705 -30.495186 0.000002 -0.000000 0.000000 
-0.744557 19.905144 41.110909 55.230819 3.015529 -5.992818 21.226635 -3.168715 7.540027 10.684027 -1.418129 2.597672 10.645587 -1.656902 2.575391 -5.885518 -0.090617 2.690562 -22.887052 3.344813 -3.226437 -0.000001 0.000001 -0.000000 0.864350 -21.429872 -7.891186 -61.141770 -30.466981 -54.468556 0.000019 -31.827370 0.000030 44.506424 2.391369 81.563503 -20.850991 -1.381296 -7.465918 -1.114510 -1.409697 6.748048 -9.023357 -2.703530 -2.342163 -0.000003 0.000002 -0.000001 -3.225340 20.419214 10.302759 0.099908 -2.843226 -10.599731 0.000339 -0.067975 0.563198 0.000001 -0.000001 -0.000004 -0.163139 6.211306 1.870852 0.025619 0.594652 -4.933784 0.082524 -1.065056 8.861722 -0.000000 0.000000 -0.000002 -0.519602 -6.350240 -4.897643 0.059785 0.907229 -7.540138 0.232322 -1.776952 14.896779 -0.000002 -0.000001 0.000008 0.013596 0.460788 -2.514103 0.077886 1.034865 -8.608572 0.232331 -1.776983 14.896769 0.000000 -0.000001 0.000001 4.912476 16.904267 -14.898103 -94.601371 37.269784 43.395060 0.000035 47.584097 -0.000017 40.570292 -28.131135 30.790322 -10.810421 -4.498454 -6.986787 16.420012 -22.752417 1.820325 -2.107040 -35.335803 -6.811896 0.000002 0.000000 0.000002 1.020815 -4.300841 17.436228 1.122697 -3.793524 32.962114 0.210357 -1.700618 14.100837 -0.000001 -0.000003 -0.000002 2.044906 -5.275918 31.774747 1.023352 -3.636070 31.428982 0.242190 -1.822613 15.136249 0.000001 0.000000 -0.000004 1.997130 -4.930111 39.043048 1.369705 -4.148794 36.527746 0.259912 -1.886945 15.684257 -0.000002 -0.000001 0.000003 1.041072 -3.744324 38.581437 0.940214 -3.496619 30.092365 0.531999 -2.672034 22.516651 -0.000002 -0.000003 0.000007 -9.558442 2.525270 2.216505 41.850044 23.896038 13.158441 35.916703 1.952093 12.934728 25.130686 13.218618 23.767216 -0.000001 0.000000 0.000000 -103.966052 -15.509649 16.291335 113.726461 -37.235756 -25.284629 42.640236 0.747592 -6.340367 22.324058 -33.535447 -39.631500 0.000003 -0.000001 0.000000 
-1.658702 20.507217 41.619217 57.028306 3.096699 -5.767203 20.729269 -1.374061 6.975130 10.603770 -0.599058 2.755697 10.579135 -0.800307 2.775961 -6.499690 -0.540889 2.174000 -23.696455 0.934093 -3.192593 -0.000001 -0.000000 0.000000 1.030389 -19.201627 -7.293256 -66.827636 -27.959267 -63.518676 0.000004 -30.033359 -0.000015 51.029682 -0.264777 83.090344 -20.908614 -1.357634 -7.516704 -1.114644 -1.409680 6.748155 -9.023462 -2.704037 -2.342350 -0.000001 0.000001 -0.000001 -3.206081 20.433805 10.245766 0.100279 -2.841284 -10.616306 0.000339 -0.068012 0.563484 0.000002 0.000000 -0.000006 -0.157137 6.216978 1.815618 0.025682 0.595330 -4.939659 0.082529 -1.065070 8.862013 -0.000001 0.000000 0.000005 -0.526277 -6.349466 -4.953876 0.059677 0.906423 -7.533151 0.232335 -1.776995 14.896771 -0.000002 0.000000 0.000004 0.013826 0.462644 -2.569605 0.077889 1.034871 -8.608469 0.232335 -1.776990 14.896755 -0.000003 0.000001 0.000001 5.498800 16.982099 -17.188762 -94.686469 37.135404 39.502420 0.000026 44.969190 -0.000023 36.469976 -26.621528 7.874785 -10.544964 -4.684034 -7.299207 16.865424 -23.327861 2.163932 -1.935689 -36.349710 -6.952005 0.000003 -0.000001 0.000002 1.116287 -4.553318 17.754131 1.165154 -3.858045 33.598452 0.232369 -1.785986 14.824608 -0.000003 -0.000001 -0.000001 2.136182 -5.374536 32.508777 1.059835 -3.694981 31.999569 0.266603 -1.910562 15.885960 -0.000000 0.000000 -0.000008 1.993279 -4.908258 40.059398 1.427442 -4.225408 37.318364 0.280475 -1.958648 16.297093 0.000002 0.000001 -0.000003 0.825547 -3.511742 39.756513 0.970921 -3.548973 30.591881 0.559192 -2.736676 23.093295 -0.000000 -0.000002 -0.000001 -11.895446 2.421940 3.375818 39.913242 23.193130 12.826562 39.899855 2.338908 12.754987 22.675262 13.320838 25.191905 -0.000000 0.000001 -0.000000 -100.389335 -14.432077 12.962171 112.055291 -38.575959 -25.806401 37.240452 0.348116 -6.626301 6.222440 -35.307994 -53.422799 0.000001 0.000000 0.000000 
-2.406603 21.256042 42.030785 59.141672 3.870217 -5.513962 20.252481 -0.137415 6.611737 10.437040 -0.031445 2.806551 10.419080 -0.194717 2.853882 -7.186978 -0.976406 1.927837 -25.119824 -1.176880 -3.593015 0.000002 0.000000 -0.000000 1.168260 -17.526231 -6.592059 -70.347875 -25.696799 -69.974605 0.000005 -28.592797 -0.000020 56.040507 -2.437392 84.972922 -21.019041 -1.309664 -7.604632 -1.114569 -1.409614 6.748132 -9.023428 -2.703814 -2.342262 -0.000001 -0.000000 -0.000001 -3.172599 20.469081 10.143619 0.100971 -2.837575 -10.647402 0.000346 -0.067990 0.563341 -0.000001 -0.000001 -0.000002 -0.146509 6.236023 1.716542 0.025809 0.596746 -4.951369 0.082513 -1.065006 8.861463 -0.000002 -0.000000 0.000002 -0.537521 -6.339521 -5.053723 0.059467 0.904892 -7.520183 0.232334 -1.776997 14.896767 -0.000000 -0.000001 0.000004 0.014638 0.474492 -2.668750 0.077896 1.034903 -8.608585 0.232334 -1.776998 14.896755 -0.000001 0.000002 -0.000003 5.704800 16.503258 -18.554875 -93.518247 37.571757 36.422479 0.000020 42.040378 -0.000014 31.982183 -22.013744 -12.612899 -10.485899 -4.725551 -7.368411 16.964856 -23.455629 2.241385 -1.897344 -36.575274 -6.982146 -0.000000 -0.000001 -0.000000 1.137880 -4.609331 17.824897 1.174696 -3.872356 33.739977 0.237410 -1.804907 14.985594 -0.000002 -0.000001 0.000001 2.156721 -5.396262 32.672056 1.068042 -3.708027 32.126468 0.272179 -1.930073 16.052700 -0.000000 0.000002 -0.000004 1.992117 -4.903622 40.285333 1.440435 -4.242337 37.494235 0.285162 -1.974569 16.433381 0.000001 0.000000 -0.000005 0.777704 -3.463138 40.009353 0.977804 -3.560559 30.702978 0.565339 -2.751005 23.221532 0.000001 -0.000001 0.000004 -15.724704 1.593078 3.861667 39.007487 22.477196 12.624243 44.350348 2.683654 12.704626 20.583234 13.458066 25.999894 0.000001 0.000000 -0.000000 -97.897518 -13.359617 9.609546 111.074995 -37.764051 -24.894235 33.509625 -0.159033 -6.195635 -5.386638 -34.817077 -62.988162 0.000001 -0.000000 -0.000000 
-2.861766 22.074097 42.547295 61.327586 5.344133 -5.289792 19.851067 0.554648 6.527390 10.280614 0.267912 2.817423 10.265814 0.138678 2.873067 -8.030984 -1.387614 1.895196 -26.739895 -3.014837 -4.235820 -0.000000 -0.000000 -0.000000 1.240036 -16.740830 -6.183396 -71.813777 -25.801275 -73.268737 0.000004 -27.517579 0.000018 58.008797 -3.969931 87.082692 -20.848959 -1.376467 -7.452673 -1.114175 -1.409771 6.747710 -9.022986 -2.702096 -2.341657 0.000004 0.000001 -0.000001 -3.230497 20.430889 10.312821 0.099876 -2.843440 -10.597989 0.000329 -0.067850 0.562321 -0.000001 0.000002 0.000001 -0.164430 6.224178 1.880327 0.025619 0.594668 -4.934013 0.082509 -1.064906 8.860308 0.000000 -0.000001 0.000003 -0.517363 -6.337031 -4.886736 0.059802 0.907298 -7.540737 0.232305 -1.776880 14.895710 -0.000001 0.000001 0.000001 0.014148 0.473916 -2.504084 0.077902 1.034918 -8.608833 0.232304 -1.776879 14.895652 0.000000 -0.000003 -0.000002 5.566072 15.673344 -18.926628 -92.376239 38.061321 34.965238 0.000025 38.859863 -0.000017 28.349643 -17.109009 -26.826700 -11.826672 -3.803056 -5.769282 14.734195 -20.533179 0.571405 -2.758134 -31.453786 -6.225923 -0.000000 -0.000001 0.000001 0.680053 -3.323770 16.221641 0.966576 -3.541649 30.521735 0.135914 -1.370871 11.324620 -0.000002 0.000000 -0.000003 1.711251 -4.884405 28.961303 0.888935 -3.406783 29.240631 0.159238 -1.482470 12.260630 0.000001 -0.000000 -0.000007 1.989601 -5.028394 35.141972 1.158282 -3.847699 33.496023 0.188184 -1.609887 13.333620 -0.000000 0.000001 -0.000005 1.757002 -4.730513 34.051164 0.826736 -3.293437 28.176427 0.433709 -2.421605 20.304961 0.000000 0.000001 0.000002 -20.164115 0.390466 3.447728 38.361962 21.863429 12.531100 48.903932 2.389868 13.782624 20.130521 13.638548 25.092078 -0.000000 0.000001 0.000000 -96.214027 -12.789965 6.753106 110.513690 -36.093404 -23.052512 30.713021 0.039841 -6.910679 -8.088121 -37.006505 -64.874277 0.000001 0.000000 -0.000000 
